<svg xmlns="http://www.w3.org/2000/svg" width="119.82999999999998" height="35" viewBox="0 0 119.82999999999998 35"><rect class="svg__rect" x="0" y="0" width="50.26" height="35" fill="#FFFFFF"/><rect class="svg__rect" x="48.26" y="0" width="71.57" height="35" fill="#D35B09"/><path class="svg__text" d="M18.62 21.04L13.72 18.85L13.72 17.72L18.62 15.54L18.62 16.97L15.17 18.30L18.62 19.62L18.62 21.04ZM23.57 22.73L22.45 22.73L25.81 13.47L26.93 13.47L23.57 22.73ZM35.98 18.85L30.92 21.03L30.92 19.63L34.54 18.27L30.92 16.94L30.92 15.54L35.98 17.72L35.98 18.85Z" fill="#D35B09"/><path class="svg__text" d="M64.83 22L62.45 22L62.45 13.60L64.83 13.60L64.83 16.76L68.07 16.76L68.07 13.60L70.44 13.60L70.44 22L68.07 22L68.07 18.72L64.83 18.72L64.83 22ZM77.40 15.48L74.81 15.48L74.81 13.60L82.33 13.60L82.33 15.48L79.77 15.48L79.77 22L77.40 22L77.40 15.48ZM88.90 22L86.71 22L86.71 13.60L88.66 13.60L91.62 18.45L94.50 13.60L96.45 13.60L96.47 22L94.29 22L94.27 17.55L92.11 21.17L91.05 21.17L88.90 17.67L88.90 22ZM108.02 22L101.64 22L101.64 13.60L104.01 13.60L104.01 20.11L108.02 20.11L108.02 22Z" fill="#FFFFFF" x="61.26"/></svg>