<svg xmlns="http://www.w3.org/2000/svg" width="92.18" height="35" viewBox="0 0 92.18 35"><rect class="svg__rect" x="0" y="0" width="50.26" height="35" fill="#000000"/><rect class="svg__rect" x="48.26" y="0" width="43.92000000000001" height="35" fill="#FFFB00"/><path class="svg__text" d="M18.62 21.04L13.72 18.85L13.72 17.72L18.62 15.54L18.62 16.97L15.17 18.30L18.62 19.62L18.62 21.04ZM23.57 22.73L22.45 22.73L25.81 13.47L26.93 13.47L23.57 22.73ZM35.98 18.85L30.92 21.03L30.92 19.63L34.54 18.27L30.92 16.94L30.92 15.54L35.98 17.72L35.98 18.85Z" fill="#E7FF00"/><path class="svg__text" d="M61.37 20.93L61.37 20.93L62.66 19.40Q63.33 20.27 64.11 20.27L64.11 20.27Q64.11 20.27 64.12 20.27L64.12 20.27Q64.63 20.27 64.90 19.96Q65.17 19.65 65.17 19.05L65.17 19.05L65.17 15.44L62.27 15.44L62.27 13.60L67.53 13.60L67.53 18.91Q67.53 20.54 66.70 21.36Q65.88 22.17 64.29 22.17L64.29 22.17Q63.36 22.17 62.61 21.85Q61.85 21.53 61.37 20.93ZM72.03 21.24L72.03 21.24L72.81 19.49Q73.37 19.86 74.11 20.09Q74.86 20.32 75.58 20.32L75.58 20.32Q76.94 20.32 76.95 19.64L76.95 19.64Q76.95 19.28 76.56 19.11Q76.17 18.93 75.30 18.74L75.30 18.74Q74.35 18.53 73.72 18.30Q73.08 18.06 72.63 17.55Q72.17 17.03 72.17 16.16L72.17 16.16Q72.17 15.39 72.59 14.77Q73.01 14.15 73.85 13.79Q74.68 13.43 75.89 13.43L75.89 13.43Q76.72 13.43 77.52 13.62Q78.33 13.80 78.94 14.17L78.94 14.17L78.21 15.93Q77.01 15.28 75.88 15.28L75.88 15.28Q75.17 15.28 74.85 15.49Q74.52 15.70 74.52 16.04L74.52 16.04Q74.52 16.37 74.91 16.54Q75.29 16.71 76.14 16.89L76.14 16.89Q77.10 17.10 77.73 17.33Q78.36 17.56 78.82 18.07Q79.29 18.58 79.29 19.46L79.29 19.46Q79.29 20.21 78.87 20.83Q78.45 21.44 77.61 21.80Q76.77 22.17 75.57 22.17L75.57 22.17Q74.55 22.17 73.59 21.92Q72.63 21.67 72.03 21.24Z" fill="#000000" x="61.26"/></svg>