<svg xmlns="http://www.w3.org/2000/svg" width="116.35999999999999" height="35" viewBox="0 0 116.35999999999999 35"><rect class="svg__rect" x="0" y="0" width="50.26" height="35" fill="#000000"/><rect class="svg__rect" x="48.26" y="0" width="68.1" height="35" fill="#A7BFC1"/><path class="svg__text" d="M18.62 21.04L13.72 18.85L13.72 17.72L18.62 15.54L18.62 16.97L15.17 18.30L18.62 19.62L18.62 21.04ZM23.57 22.73L22.45 22.73L25.81 13.47L26.93 13.47L23.57 22.73ZM35.98 18.85L30.92 21.03L30.92 19.63L34.54 18.27L30.92 16.94L30.92 15.54L35.98 17.72L35.98 18.85Z" fill="#A7BFC1"/><path class="svg__text" d="M61.86 21.24L61.86 21.24L62.64 19.49Q63.20 19.86 63.95 20.09Q64.69 20.32 65.41 20.32L65.41 20.32Q66.78 20.32 66.78 19.64L66.78 19.64Q66.78 19.28 66.39 19.11Q66.00 18.93 65.14 18.74L65.14 18.74Q64.19 18.53 63.55 18.30Q62.92 18.06 62.46 17.55Q62.01 17.03 62.01 16.16L62.01 16.16Q62.01 15.39 62.43 14.77Q62.85 14.15 63.68 13.79Q64.52 13.43 65.72 13.43L65.72 13.43Q66.55 13.43 67.36 13.62Q68.16 13.80 68.78 14.17L68.78 14.17L68.04 15.93Q66.84 15.28 65.71 15.28L65.71 15.28Q65.00 15.28 64.68 15.49Q64.36 15.70 64.36 16.04L64.36 16.04Q64.36 16.37 64.74 16.54Q65.13 16.71 65.98 16.89L65.98 16.89Q66.94 17.10 67.57 17.33Q68.20 17.56 68.66 18.07Q69.12 18.58 69.12 19.46L69.12 19.46Q69.12 20.21 68.70 20.83Q68.28 21.44 67.44 21.80Q66.60 22.17 65.40 22.17L65.40 22.17Q64.38 22.17 63.42 21.92Q62.46 21.67 61.86 21.24ZM73.27 17.80L73.27 17.80Q73.27 16.54 73.87 15.54Q74.47 14.55 75.52 13.99Q76.57 13.43 77.89 13.43L77.89 13.43Q79.04 13.43 79.96 13.84Q80.89 14.25 81.50 15.02L81.50 15.02L79.99 16.39Q79.18 15.40 78.01 15.40L78.01 15.40Q77.32 15.40 76.79 15.70Q76.26 16 75.96 16.54Q75.67 17.09 75.67 17.80L75.67 17.80Q75.67 18.51 75.96 19.05Q76.26 19.60 76.79 19.90Q77.32 20.20 78.01 20.20L78.01 20.20Q79.18 20.20 79.99 19.22L79.99 19.22L81.50 20.58Q80.89 21.35 79.97 21.76Q79.04 22.17 77.89 22.17L77.89 22.17Q76.57 22.17 75.52 21.61Q74.47 21.05 73.87 20.05Q73.27 19.06 73.27 17.80ZM85.45 21.24L85.45 21.24L86.23 19.49Q86.79 19.86 87.54 20.09Q88.28 20.32 89.00 20.32L89.00 20.32Q90.37 20.32 90.37 19.64L90.37 19.64Q90.37 19.28 89.98 19.11Q89.59 18.93 88.73 18.74L88.73 18.74Q87.78 18.53 87.14 18.30Q86.51 18.06 86.05 17.55Q85.60 17.03 85.60 16.16L85.60 16.16Q85.60 15.39 86.02 14.77Q86.44 14.15 87.27 13.79Q88.11 13.43 89.31 13.43L89.31 13.43Q90.14 13.43 90.94 13.62Q91.75 13.80 92.37 14.17L92.37 14.17L91.63 15.93Q90.43 15.28 89.30 15.28L89.30 15.28Q88.59 15.28 88.27 15.49Q87.95 15.70 87.95 16.04L87.95 16.04Q87.95 16.37 88.33 16.54Q88.72 16.71 89.57 16.89L89.57 16.89Q90.53 17.10 91.16 17.33Q91.79 17.56 92.25 18.07Q92.71 18.58 92.71 19.46L92.71 19.46Q92.71 20.21 92.29 20.83Q91.87 21.44 91.03 21.80Q90.19 22.17 88.99 22.17L88.99 22.17Q87.97 22.17 87.01 21.92Q86.05 21.67 85.45 21.24ZM96.70 21.24L96.70 21.24L97.48 19.49Q98.04 19.86 98.79 20.09Q99.53 20.32 100.25 20.32L100.25 20.32Q101.62 20.32 101.62 19.64L101.62 19.64Q101.62 19.28 101.23 19.11Q100.84 18.93 99.98 18.74L99.98 18.74Q99.03 18.53 98.39 18.30Q97.76 18.06 97.30 17.55Q96.85 17.03 96.85 16.16L96.85 16.16Q96.85 15.39 97.27 14.77Q97.69 14.15 98.52 13.79Q99.36 13.43 100.56 13.43L100.56 13.43Q101.39 13.43 102.19 13.62Q103.00 13.80 103.62 14.17L103.62 14.17L102.88 15.93Q101.68 15.28 100.55 15.28L100.55 15.28Q99.84 15.28 99.52 15.49Q99.20 15.70 99.20 16.04L99.20 16.04Q99.20 16.37 99.58 16.54Q99.97 16.71 100.82 16.89L100.82 16.89Q101.78 17.10 102.41 17.33Q103.04 17.56 103.50 18.07Q103.96 18.58 103.96 19.46L103.96 19.46Q103.96 20.21 103.54 20.83Q103.12 21.44 102.28 21.80Q101.44 22.17 100.24 22.17L100.24 22.17Q99.22 22.17 98.26 21.92Q97.30 21.67 96.70 21.24Z" fill="#000000" x="61.26"/></svg>